<svg width="1024" height="1024" viewBox="0 0 1024 1024" xmlns="http://www.w3.org/2000/svg">
  <rect width="1024" height="1024" fill="#F2E8D5"/>
  <circle cx="512" cy="512" r="352" fill="#C8D4B5"/>
  <circle cx="512" cy="512" r="314.45" fill="#A5B894"/>
  <circle cx="512" cy="512" r="276.91" fill="#6B8E6F"/>
  <circle cx="512" cy="512" r="178.35" fill="#3D2F1F"/>
  <g transform="translate(512 512) scale(0.65) translate(-493 -528)">
    <path fill="#F2E8D5" d="M 668 292 C 520 248 368 268 318 360 C 278 432 318 508 430 536 L 548 568 C 648 594 698 648 678 728 C 648 838 518 878 358 852 C 278 838 238 808 218 768 L 308 728 C 328 768 388 788 468 798 C 568 812 648 778 668 708 C 688 638 628 588 528 562 L 408 528 C 298 498 248 428 268 348 C 308 228 468 178 638 228 C 708 248 748 268 768 292 Z"/>
  </g>
</svg>
